<?xml version="1.0" encoding="utf-8"?>
<!-- Generator: Adobe Illustrator 16.0.4, SVG Export Plug-In . SVG Version: 6.00 Build 0)  -->
<!DOCTYPE svg PUBLIC "-//W3C//DTD SVG 1.1//EN" "http://www.w3.org/Graphics/SVG/1.1/DTD/svg11.dtd">
<svg version="1.1" id="Layer_1" xmlns="http://www.w3.org/2000/svg" xmlns:xlink="http://www.w3.org/1999/xlink" x="0px" y="0px"
	 width="400px" height="400px" viewBox="-74 -123 400 400" enable-background="new -74 -123 400 400" xml:space="preserve">
<g>
	<polyline points="213.694,119.239 213.694,135.992 213.694,119.239 	"/>
	<path d="M58.712,126.227h0.158c0.397,0.079,0.794,0.317,0.874,0.793v0.079h0.396v-4.127h-0.317v0.078
		c-0.159,0.557-0.556,0.874-1.032,0.874h-4.764v-8.257c0-0.08,0.079-0.16,0.159-0.16h0.158h0.159h0.873c0.079,0,0.158,0,0.317,0
		h3.414c0.715,0,1.111,0.16,1.43,0.795v0.079h0.396v-0.079l-0.396-3.018c0-0.078-0.08-0.158-0.238-0.158H48.946v0.317h0.079
		c0.715,0.08,0.952,0.715,0.952,1.589v20.88c0,0.873-0.237,1.509-0.952,1.588h-0.079v0.318h12.227c0.08,0,0.159-0.08,0.159-0.159
		l0.396-3.018l0,0h-0.317v0.08c-0.317,0.715-0.953,1.032-1.984,1.032h-4.05c-1.271,0-1.35-0.159-1.35-0.873v-8.496
		c0-0.079,0.079-0.158,0.159-0.158H58.712"/>
	<path d="M193.845,115.507h0.238c0.873,0.08,1.191,0.478,1.35,0.874l0.079,0.159l0,0l0.317-0.08v-0.079l-0.793-3.097
		c0-0.078-0.159-0.158-0.238-0.158h-14.213c-0.079,0-0.237,0.08-0.237,0.158l-0.794,3.097v0.079l0.317,0.08l0.079-0.159
		c0.159-0.477,0.556-0.874,1.588-0.952h3.891h0.08c0.079,0,0.079,0.078,0.079,0.158v20.325l0,0v0.08
		c0,0.873-0.238,1.508-0.953,1.588h-0.08v0.317h6.194v-0.317h-0.08c-0.715-0.08-0.953-0.715-0.953-1.588v-20.246
		c0-0.079,0.08-0.159,0.159-0.159h3.97"/>
	<polyline points="57.601,106.774 54.504,112.411 55.854,112.411 60.3,106.774 57.601,106.774 	"/>
	<path d="M93.726,113.126v0.317h-0.079c-0.318,0.08-0.397,0.237-0.397,0.477c0,0.238,0.159,0.635,0.318,1.112v0.078l0,0l3.89,8.416
		v0.08c0.238-0.557,2.938-6.591,3.652-8.496l0,0v-0.078c0.079-0.318,0.159-0.557,0.159-0.795c0-0.396-0.238-0.635-0.636-0.714
		h-0.079v-0.317h4.685v0.317h-0.08c-0.714,0.079-0.952,0.555-1.35,1.27c-0.079,0.079-0.079,0.239-0.158,0.396l0,0
		c-0.317,0.715-4.208,9.211-5.082,11.354v9.527c0,0.874,0.238,1.509,0.953,1.588h0.079v0.317h-6.033v-0.317h0.079
		c0.714-0.079,0.952-0.714,0.952-1.588v-0.159l0,0v-9.131l-0.079-0.158l-5.399-11.909c-0.317-0.715-0.556-1.111-1.19-1.271l0,0
		v-0.317H93.726"/>
	<path d="M119.371,108.362c0.158,0,0.237,0.079,0.317,0.158l6.59,18.658v-0.08l6.352-18.578c0.08-0.158,0.159-0.238,0.317-0.238
		h4.367v0.397h-0.079c-0.636,0.079-0.873,0.556-0.953,1.35v0.317v0.079l0,0l1.985,25.566c0.158,0.793,0.556,1.429,1.19,1.508h0.079
		v0.397h-6.351V137.5h0.079c0.556-0.079,0.635-0.476,0.635-1.032c0-0.158,0-0.396,0-0.635v-0.079l-1.271-17.626l-0.158-1.985
		l-0.079,0.397l-0.16,0.556l-6.669,19.85c-0.079,0.079-0.079,0.158-0.159,0.158c-0.079,0-0.079-0.079-0.158-0.158l-7.543-20.724
		l-0.079,0.715l-0.794,18.737l0,0v0.08c0,0.079,0,0.158,0,0.238c0,0.793,0.317,1.35,0.953,1.429h0.079v0.397h-4.923V137.5h0.079
		c0.715-0.079,1.112-0.715,1.191-1.588v-0.079l0,0l1.509-25.327l0,0v-0.08v-0.237c0-0.795-0.317-1.351-0.953-1.43h-0.079v-0.396
		H119.371"/>
	<path d="M69.985,113.126c0.08,0,0.239,0.08,0.239,0.158l5.398,14.927l5.161-14.927c0.079-0.158,0.159-0.158,0.238-0.158h3.97v0.317
		h-0.079c-0.636,0.08-0.874,0.556-0.874,1.19c0,0.08,0,0.238,0,0.398v0.078l0,0l1.905,21.119c0.08,0.795,0.317,1.271,1.032,1.351
		h0.08v0.317H81.34v-0.317h0.079c0.477-0.08,0.635-0.397,0.635-0.795c0-0.237,0-0.476-0.079-0.714v-0.159l-1.19-14.767l-0.159-1.589
		l-0.159,0.397c-0.079,0.237-0.158,0.396-0.158,0.396l-5.399,16.674c-0.079,0.079-0.079,0.158-0.158,0.158
		c-0.08,0-0.08-0.079-0.159-0.158c-1.032-2.858-5.796-16.197-6.113-17.309v-0.079l-0.079,0.873c0,0-0.636,11.988-0.794,15.244l0,0
		v0.079v0.238c0,0.794,0.237,1.271,0.952,1.35h0.08v0.317h-4.447v-0.317h0.08c0.715-0.079,1.032-0.714,1.111-1.588v0.079
		l1.191-20.802l0,0v-0.078v-0.398c0-0.635-0.238-1.11-0.874-1.19h-0.079v-0.317H69.985"/>
	<path d="M214.806,113.126c0.079,0,0.238,0.08,0.318,0.158c0.078,0.159,6.827,13.735,7.542,15.086v-13.418
		c-0.08-0.874-0.397-1.429-1.032-1.509h-0.079v-0.317H226v0.317h-0.079c-0.635,0.08-0.953,0.715-0.953,1.589v22.865h-1.904
		c0,0-8.337-16.991-9.131-18.578v-0.08v16.753c0,0.873,0.396,1.429,1.031,1.588h0.08v0.317h-4.525v-0.317h0.079
		c0.635-0.08,0.953-0.715,0.953-1.588V115.11c0-0.873-0.396-1.43-1.032-1.587H210.2v-0.317h4.605"/>
	<path d="M205.04,113.126h-6.034v0.317h0.079c0.635,0.08,0.952,0.715,0.952,1.589v20.88c0,0.873-0.317,1.509-0.952,1.588h-0.079
		v0.318h6.034V137.5h-0.08c-0.635-0.079-0.952-0.715-0.952-1.588v-20.88c0-0.874,0.317-1.43,0.952-1.589h0.08V113.126"/>
	<g>
		<path d="M96.584,60.326c-0.317,0.159-0.397,0.556-0.397,0.556c-0.158,0-0.396,0.239-0.556,0.636l-0.158,0.794
			c0,0.159,0,0.396,0.158,0.556c-0.079,0.08-0.079,0.238-0.079,0.238c0,0.238,0.238,0.317,0.317,0.317l-1.746,2.938l-1.112,1.826
			c0,0,0,0.237,0.397,0.476c0.396,0.238,0.635,0.08,0.635,0.08l1.111-1.826c0,0,1.668-2.621,1.747-2.779l0.477,0.317
			c0.317,0.079,0.715,0.318,1.271-0.159c0.238-0.158,0.715-0.635,1.35-0.873c0.556-0.476,0.873-0.635,1.271-0.793
			c0.317-0.08,0.556-0.239,0.952-0.557c0.874-1.032,2.224-1.747,3.652-2.461c0,0,1.271-0.477,1.826-0.953s1.111-1.35,1.111-1.35
			c1.112-1.111,2.144-2.224,3.414-3.017l0,0c0.477-0.317,0.874-0.874,1.271-1.351c0.238-0.317,0.477-0.635,0.794-0.873
			c0.159-0.159,0.317-0.238,0.477-0.397c0.079-0.079,0.158-0.158,0.317-0.158c0.318-0.159,0.794-0.317,1.032-0.238
			c0.874,0,1.668,0.159,2.541,0.317c1.111,0.159,2.223,0.397,3.493,0.238c0.556,0.079,1.032,0.556,1.429,1.032l0.159,0.238
			c0,0-0.159,0.397-0.159,0.477c-0.079,0.079,0,0.397-0.158,0.477c-0.159,0.079-0.238,0.317-0.317,0.556
			c-0.317,1.667-1.032,2.779-2.064,3.97c-1.747,1.984-4.208,2.699-6.511,3.335c-1.905,0.556-3.891,1.032-5.479,2.302l-0.635,0.557
			c-0.556,0.556-1.032,0.873-1.905,1.111c-0.477,0.079-0.953-0.08-1.351-0.238c-0.396-0.159-0.873-0.317-1.35-0.317
			c0,0-0.079,0-0.158,0h-0.08h-0.237c-0.715,0-2.145,0.158-3.414,1.19c-1.668,1.35-2.858,4.05-2.7,5.796l0.08,0.556l0.079,0.557
			c0.159,0.714,0.317,1.349,0.556,1.984c0.238,0.715,0.556,2.064,0.635,2.144c0.08,0.238-0.079,0.318-0.079,0.318
			c0.079,0.158,0.317,0.079,0.397,0.079h0.079c0.079,0,0.159,0,0.159,0h0.158l0.636,1.429c0.476,1.032,0.873,2.064,1.667,2.938
			c0.079,0.159,0.158,0.239,0.317,0.239h0.079c0.08,0,0.159-0.08,0.238-0.08c0,0,0.079,0,0.159-0.079l1.111,1.667
			c0.953,1.35,1.985,2.7,1.985,4.366c0,0.16,0,0.397,0,0.636c-0.159,0.873-1.111,1.985-1.906,2.223c0,0,0,0.239,0.08,0.318
			c0.079,0.158,0.396,0.396,0.556,0.476c0.159,0.08,0.396,0.08,0.556,0.08h-0.159c0.794-0.08,1.509-0.397,2.145-0.953
			c0.556-0.079,2.382-1.032,2.778-2.54c0,0,0.158-0.636,0.158-0.794h0.08c0.238,0,0.715,0.158,1.032,0.237l1.191,0.317
			c0.714,0,1.19,0.478,1.746,1.033c0.635,0.636,1.35,1.271,2.382,0.953c0.238,0.079,0.317,0.158,0.317,0.396
			c0,0.079,0,0.238-0.079,0.396l-0.079,0.556v0.08c0,0.237,0.158,0.317,0.317,0.397c0.079,0.079,0.158,0.079,0.158,0.157l0,0
			c-0.158,0.16-0.237,0.318-0.237,0.397c0,0.238,0.158,0.397,0.237,0.557l0.239,0.396l0.079,0.079
			c0.477,0.159,0.952,0.239,1.429,0.239h0.318c0.873,0,1.587-0.318,2.144-0.874l0.079-0.08v-0.079
			c-0.159-0.476-0.317-0.953-0.556-1.35l0,0h-0.08c-0.158-0.079-0.238-0.238-0.317-0.477s-0.158-0.396-0.317-0.556
			c-0.952-0.397-1.588-1.35-2.144-2.224l-0.159-0.237c0.715,0.08,1.43,0.477,1.906,0.873c0.158,0.079,0.237,0.159,0.396,0.159h0.079
			c0.238,0,0.477-0.159,0.636-0.238c0.238-0.159,0.396-0.238,0.635-0.238c0.159,0,0.238,0.079,0.238,0.159v0.079
			c0,0.079,0,0.238-0.079,0.317c-0.079,0.159-0.079,0.317-0.079,0.397c0,0.158,0.079,0.237,0.158,0.397
			c0,0.317,0.079,0.555,0.317,0.714c0.477,0.476,1.35,0.476,1.826,0.476h0.159c0.635,0,1.509-0.158,1.746-0.952v-0.08V90.18
			c-0.317-0.714-0.635-1.27-0.952-1.747l0,0h-0.079c-0.397-0.157-0.636-0.635-0.874-1.111l-0.079-0.079h-0.079
			c-0.477,0-0.874-0.396-1.191-0.714c-0.396-0.396-0.794-0.795-1.35-0.874l-1.429-0.238c-1.509-0.238-2.858-0.396-3.652-1.746
			c-0.08-0.238-0.159-0.477-0.159-0.715c0-0.396,0.079-0.794,0.317-1.111l0.159-0.238c1.588-1.905,3.017-3.494,3.176-5.876
			l-0.079-0.953c0-0.317-0.08-0.476-0.08-0.714c0-0.317,0.08-0.557,0.397-0.635h0.635c2.7-0.08,6.034-0.478,8.575-1.906
			c2.541-1.35,4.526-2.858,6.828-6.748l0.714,0.237c0.557,0.159,1.351,0.397,1.826-0.317c0.239-0.873,0.795-1.588,1.271-2.382
			l0.237-0.396c0.716-1.191,0.953-2.541,1.191-3.812c0.556-0.794,0.873-1.826,1.19-2.778c0.239-0.715,0-1.668,0.318-2.303
			c0.477-0.794,1.35-1.43,1.826-1.747c0.159,0.238,0.873,0.635,1.032,0.635c0.237,0.08,0.396,0.159,0.476,0.318
			c0,0.079,0.08,0.079,0.08,0.158c0,0.159-0.159,0.318-0.397,0.477c-0.238,0.159-0.477,0.397-0.477,0.715V53.34h0.08
			c0.079,0.079,0.158,0.159,0.158,0.317c0,0.08-0.079,0.238-0.158,0.397c-0.08,0.158-0.238,0.396-0.159,0.635v0.079l0,0l0,0
			c1.033,1.668,2.224,2.7,3.414,3.097l0.159,0.08l0.238-0.794c0.079-0.318,0.158-0.715,0.158-1.032c0-0.477,0-0.953,0.317-1.351
			l0.08-0.079l-0.317-1.509c-0.238-0.794-0.397-1.667-0.397-2.54v-0.397c-0.158-0.873-0.556-1.271-1.111-1.588
			c1.032-0.794,2.145-1.667,3.414-1.905c0.714-0.159,0.794-0.556,0.794-0.953v-0.238c0-0.238,0-0.476,0.237-0.635
			c0.08-0.079,0.08-0.079,0.16-0.079c0.079,0,0.158,0.079,0.317,0.158c0.476,0.317,0.714,0,0.952-0.237l0.159-0.159
			c1.667,0.159,2.063-0.953,2.541-1.985l0.237-0.556c0.159-0.317,0.397-1.111,0.159-1.509l-0.079-0.079h-0.08
			c-0.794,0.079-2.381,0.794-2.381,0.794l-0.08,0.079c-0.08,0-0.159,0-0.159,0h-0.158c-0.556,0-1.032,0.318-1.509,0.636
			l-0.555,0.396c-1.509,0.397-2.7,1.509-3.892,2.62c-0.873,0.794-1.826,1.588-2.858,2.144c0.794,0.318,1.747,0.397,2.224,0.953
			c0.079,0.158,0.238,0.636,0.317,0.715c-0.635-0.715-3.096-1.112-3.494-1.191c-0.317-0.079-0.555-0.079-0.873-0.158h-0.079
			c-1.271,0.715-2.858,1.826-3.493,3.255c-0.159,0.715-0.477,2.303-0.556,2.779c-0.159,0.635-0.397,2.223-0.715,2.778
			c-0.317-1.111-1.589-3.414-1.589-3.414s-1.508-1.826-1.746-2.54c-0.158-0.715-0.873-1.826-1.508-2.303
			c-0.795-0.397-1.112-1.111-1.43-1.826c-0.317-0.794-0.715-1.588-1.588-2.064l-0.159-0.477c-0.556-1.271-2.938-2.858-2.938-2.858
			h-0.079c-0.873-0.158-1.191-0.794-1.43-1.429l-0.158-0.318c-0.08-0.237-0.08-0.396-0.08-0.635c0-1.271,0.795-2.303,1.589-3.414
			c0,0,2.064-2.144,2.699-3.891l0.794-1.111c1.271-1.19,1.35-2.382,1.906-3.891c0.237-0.794,0.237-0.556,0.635-1.19
			c1.031-1.747,1.429-2.224,1.826-2.382l0.158-0.08c0.238-0.158,0.556-0.317,0.794-1.031l0.159-0.636l0.158-0.477
			c0.396-0.476,0.636-1.031,0.715-1.429v-0.08c0-0.158-0.079-0.237-0.158-0.396c-0.08,0-0.08,0-0.16-0.079l0.16-0.715
			c0.157-0.238,0.556-0.715,0.556-1.032c0-0.477-0.318-0.556-0.477-0.556h-0.079l0,0c-0.239,0-1.191,1.032-1.191,1.032
			c-0.397,0.317-2.699,3.097-2.699,3.097c-1.111,1.111-3.018,3.652-3.018,3.731l-1.349,1.191l-1.906,1.984
			c-0.557,0.477-0.953,1.429-1.351,2.62c-1.19,0.635-2.144,1.826-2.699,3.414c-0.477,0.636-1.271,1.032-1.985,1.509
			c-1.27,0.794-2.54,1.588-2.699,3.334c-0.396,0.159-0.794,0.477-1.111,0.715l-0.556,0.396c-0.317,0.159-0.317,0-0.477-0.079
			c0.397-0.556,0.477-0.635,0.556-0.794c0.08-0.158,0.08-0.238,0.08-0.396c0-0.397-0.318-0.715-0.636-0.874v-0.238
			c0-0.158-0.079-0.317-0.238-0.476v-0.08l0,0c0-0.237-0.079-0.317-0.238-0.317l-0.079-0.079l0,0c0-0.08,0.079-0.08,0.158-0.238
			c0.08-0.159,0.239-0.238,0.239-0.397v-0.079l-0.239-0.238c2.859-4.764,9.846-16.196,9.846-16.196
			c0.079-0.318,0.159-0.397,0.397-0.636c0.476-0.477,0.476-1.19,0.476-1.271c0-0.079,0-0.237,0-0.237s-0.158,0-0.238,0.079
			c-0.079,0-0.793,0.238-1.031,0.952c-0.08,0.238-0.159,0.397-0.397,0.636c0,0-9.845,15.879-9.925,16.038
			c-0.238-0.079-0.238-0.159-0.317-0.396c-0.079-0.239-0.238-0.478-0.556-0.557s-1.111-0.238-1.588-0.556l-0.08-0.079h-0.079
			c-0.238,0.079-0.158,0.079-0.317-0.159s-0.317-0.477-0.556-0.477h-0.159c-0.079,0-0.158,0-0.317,0.08
			c-0.238,0.079-0.477,0.079-0.715,0.079c-0.079,0-0.079,0-0.158,0c-0.397,0-0.873,0.079-1.19,0.556c-0.08,0-0.159,0-0.159,0
			c-0.715,0-1.032,0.635-1.271,1.19c-0.159,0.397-0.317,0.715-0.636,0.953c-0.396,0.317-0.556,0.795-0.556,1.271
			c0,0.238-0.079,0.715,0,0.794v0.635c0,0.08,0.08,0.397,0.08,0.557c0,0.158,0.079,0.317,0.158,0.476
			c0,1.033,0.794,1.589,1.509,2.145c0.396,0.873,1.191,1.032,1.905,1.19c0,0,0,0.079,0.159,0.079L98.489,59.295c-0.079,0,0,0,0,0
			s0.079,0-0.079-0.08c-0.159,0-0.317,0.08-0.317,0.08l-0.477,0.238c-0.477,0.079-0.636,0.237-0.636,0.556L96.584,60.326z
			 M128.898,45.718c0.556-0.079,1.19,0.238,1.43,0.396l0.078,0.08c0.08,0.237,0.239,0.396,0.318,0.635v0.08
			c0,0.237-0.238,0.396-0.556,0.158s-0.635-0.794-1.191-0.953C128.423,45.956,128.502,45.718,128.898,45.718z M132.393,21.343
			c0.237-0.317,0.396-0.396,0.952-0.237c0.396,0.078,0.874-0.397,1.191-0.874c0.635-0.953,0.714-0.794,0.396-0.396l-0.477,1.031
			c-0.158,0.477-1.032,0.636-1.588,0.795c-0.079,0-0.318,0-0.476,0.158C132.312,21.819,132.153,21.74,132.393,21.343z
			 M121.832,34.603c0.158-0.397,0.715-0.795,1.667-1.668c0.953-0.873,3.335-1.746,3.018-2.063c-0.08-0.477-0.238-1.191,0.08-1.985
			c1.031-1.826,3.652-2.541,4.366-3.811c0.158-0.318,1.19-1.271-0.159-0.715c-0.317,0.158-0.873,0.079,0-0.556
			c0.636-0.318,1.111-0.715,1.35-0.874c0.159-0.079,0.477-0.317,0.715-0.477c0.556-0.079-0.318,0.715-0.793,1.43
			c-0.478,0.714-0.715,1.905-1.033,2.699c-0.476,1.032-0.953,2.224-2.302,2.858c-0.874,1.111-0.635,1.826-3.653,5.479
			c-0.556,0.636-1.111,1.509-1.35,2.779C121.911,38.334,121.673,34.92,121.832,34.603z M120.562,41.271
			c0.556,0.238,0.317,0.159,1.032,0.079c1.509-0.158,2.064,0.318,2.144,0.953c0.159,0.794,0.477,0.636,0.874,0.556
			c0.476-0.079,1.031,0.08,1.27,0.397c0.636,0.635,0.795,0.476,1.588,1.031c0.318,0.239,0.557,0.318,0.557,0.557
			c0.08,0.556-0.08,0.714-0.636,0.079c-0.238-0.317-0.793-0.317-1.509-0.477c-0.714-0.159-0.873-0.159-1.588-0.794
			c-1.032-0.873-1.35-0.873-2.144-1.032s-1.826-0.873-1.905-0.952C119.768,41.271,120.006,41.033,120.562,41.271z M113.812,36.587
			c0.08,0,0.397,0,0.636,0c0.079,0,0.079,0.159-0.08,0.635c-0.079,0.238,0.636,0.08,1.033,0.08c0.158,0.238,0.079,0.715-0.08,1.032
			l-0.238,0.317c-0.159,0.159-0.477,0.556-0.635,1.032c-0.08,0.715,0,2.064,0.079,2.778c0.159,0.715,1.111-0.396,1.747-0.556
			c1.667-0.317,0.556,0.556-0.08,0.794c-0.635,0.238-0.952,1.032-1.508,1.191c-0.477,0.079-1.43,0.477-1.826,0.794
			c0.079-0.317-0.08-1.588-0.317-2.144c-0.238-0.556-0.556-1.111-0.953-1.509c-0.159-0.159-0.08-0.079-0.397-0.159L113.812,36.587z
			 M108.018,39.763L108.018,39.763c-1.826-0.396-1.589-1.429-1.589-1.429v-0.079c-0.158-0.159-0.237-0.318-0.079-0.477l-0.397-0.238
			c-0.079-0.08,0-0.477,0-0.477c-0.238-0.635,0,0,0.397-0.317c-0.079,0.317,0.079-0.317,0.238-0.397
			c0.317-0.079,0.317,0.159,0.477,0.477c0.158,0.317-0.159-0.635,0.396-0.794c0.557-0.079,0.794,0,0.794-0.397
			c0-0.396-0.477,0.159-0.477-0.476c0-0.477,0.239-0.317,0.318-0.317c0.477,0,0.238,0.556,0.635,0.396
			c1.032-0.317,0.556,0.396,1.032,0.396c0.715,0.08,0.556,0.557,0.794,0.477c0.238,0,0.238-0.477,0.238-0.794
			s0.158-0.714,0.317-0.952c0.238-0.238,0.477-0.557,1.191-0.557c0.396,0.08,0.556,0.159,0.714,0.397
			c-0.079,0.238-0.476,0-0.476,0.159c0,0.158,0.317,0.477,0,0.714c-0.318,0.238-0.715,0-0.715-0.237
			c-0.238,0.158-0.317,0.635-0.317,1.032c0,0-0.159,1.27,0.952,0.793c0.08-0.158-1.429,2.382-2.223,3.652
			C109.446,40.239,108.414,40.557,108.018,39.763z M110.479,42.065c0.556,0.159,1.509,0.396,1.667,1.032
			c0.159,0.635,0,1.271-0.079,1.826c-0.556,0.635-1.271,1.111-2.064,2.461c-0.397,0.397-0.159,1.985-1.271,2.938
			c-1.826,1.587-1.509,4.287-3.891,5.002c-1.271,0.476-3.652,3.97-3.811,3.97c-0.079,0-0.079,0-0.159,0c-0.397,0-1.032,0-1.032,0
			C102.936,54.293,109.843,43.098,110.479,42.065z M97.219,61.041c0.159-0.159,0.397-0.396,0.477-0.556s0.079-0.238,0.238-0.317
			c-0.079,0.238,0.079,0.317,0.396,0.636c0.636,0.635,0.874,0.635,1.271,0.396c0.238-0.159,0.794-0.079,1.43-0.079
			c0.396,0,0.556,0.079,0.873-0.239c0.079-0.078,0.556-0.952,0.874-1.27c0.873-0.874,3.811-1.905,4.684-3.891
			c0-0.079,0.953,0,1.509-0.556c0.794-0.715,0.794-0.477,1.509-1.429c1.271-1.668,1.032-1.747,1.905-2.303
			c0.477-0.953,0.317-2.224-0.159-2.858c-0.476-0.636-0.317-0.874,1.032-1.509c1.588-0.714,3.891-0.158,5.559-1.111
			c0.079-0.08,0.158-0.08,0.158-0.159c0-0.158-0.079-0.317,0.159-0.477c0.238-0.317,0.556,0,0.873-0.317
			c0.794-0.715,1.984-1.35,0.794,0.715c-0.238,0.477,0.873,0.158,2.223,0.556c0.953,0.238,0.08,1.35,2.303,1.588
			c0.317,0.079,0.317,0.715,0.636,0.794c0.396,0.08,1.111,0.08,2.223-0.317c1.032-0.317,0.794,0.317,0.318,0.556
			c-0.318,0.238-1.033,0.477-1.747,1.032c-0.636,0.477-0.556,0.477,0.238,0.317s0.794,0.238,0.317,0.636
			c-0.396,0.317-0.477,0.317-0.953,0.714c-0.317,0.317-0.238,0.397,0.239,0.397c0.714-0.08,1.983-0.715,2.54-0.953
			c0.635-0.238,1.27,0,0.317,0.477c-1.111,0.477-1.746,1.032-2.223,1.509c-0.635,0.396-0.635,1.111-1.747,2.223
			c-0.397,0.477-1.111,0.953-1.509,0.953c-0.794,0,0.317-2.62,0.317-2.938c0-0.318-0.158-0.715-0.158-0.715
			c0.635-1.43-1.112-1.826-1.905-1.985c-1.271,0.159-3.414-0.317-4.446-0.477c-3.097-0.635-5.161,3.018-6.987,4.685
			c0,0-1.747,1.43-2.858,2.541l-2.62,1.747c-0.477,0.238-3.018,2.223-3.414,2.62c-0.317,0.238-0.556,0.317-0.794,0.476
			c-0.396,0.159-0.794,0.318-1.35,0.874c-1.35,0.714-2.064,0.556-2.382,0.396c0,0-0.556-0.317-0.715-0.556
			c-0.159-0.237,0.079-0.556,0.159-0.794c0-0.158,0-0.238,0.158-0.477C96.901,61.518,96.98,61.2,97.219,61.041z M105.477,73.903
			l1.35,1.747c0.873,1.111,1.826,2.224,2.223,3.494c0.08,0.237,0.08,0.396,0.08,0.635c0,0.873-0.397,1.667-0.874,2.461
			c-0.635-1.826-1.905-3.573-3.97-5.24c-0.238-0.159-0.238-0.397-0.317-0.715l-0.079-0.476l-0.477-0.636
			c-0.317-0.397-0.556-0.715-0.635-1.19l0.158-0.08l0.397-0.317c0-0.08,0-0.238,0-0.317c0-0.477-0.159-0.873-0.318-1.271
			l-0.317-0.953c0-0.158,0-0.317,0-0.396c0-0.794,0.238-1.35,0.794-1.668c0.317-0.237,0.635-0.237,0.953-0.237
			c0.238,0,0.396,0,0.556,0.079c0.158,0.079,0.238,0.238,0.238,0.396c0,0.08,0,0.08,0,0.08c-0.317,0.715-0.397,1.508-0.397,2.223
			C104.762,72.236,105,73.188,105.477,73.903z M116.75,90.974c0-0.158,0.08-0.476,0.08-0.476c0-0.159,0.079-0.318,0.079-0.477
			c0-0.238-0.159-0.556-0.556-0.715c0,0-0.477,0.079-0.715,0.079h-0.158c-0.397,0-0.636-0.238-1.112-0.556
			c-0.635-0.397-1.19-1.271-1.984-1.271h0.079l-0.952-0.158c-0.715-0.238-2.064-1.191-2.462-1.191c-0.079,0-0.079,0-0.079,0
			l0.079,1.032c0,0,0.08,0.317-0.079,0.953c-0.079,0.635-1.032,2.144-2.541,2.144c0.636-0.477,1.43-1.35,1.43-2.303
			c0-1.667-0.477-1.904-0.636-1.904c-0.079,0-0.079,0-0.079,0c0-1.033-0.159-4.051-0.635-5.161
			c-0.159-0.397-0.477-1.191-1.112-1.985l0.238,0.238c2.064,1.984,1.509,4.446,1.905,4.049l1.43-1.271
			c0.556-0.873,1.35-2.144,1.032-3.652c-0.397-1.35-1.35-1.905-2.224-3.017l-1.746-1.747c-0.874-1.271-0.874-3.017-0.238-4.605
			c0.079-0.237,0.158-0.635,0.158-0.952c0.159-0.873-0.238-1.111-0.952-1.111c-1.191,0-2.938,0.794-2.7,0.317
			c0.08-0.159,1.191-1.032,3.256-0.953h0.238c1.032,0.159,1.746,1.271,1.111,2.699c-1.35,2.779,0.873,4.447,2.461,4.525
			c2.145,0.159,1.509,1.112,3.335,1.906c0.874,0.317,1.985,0.477,2.938,0.556c-0.317,0.159-0.715,0.317-1.271,0.317h-0.237
			c-0.556,0-1.351-0.079-2.382-0.396c-0.08,0-0.08,0-0.159,0c-0.477,0-1.032,0.396-0.397,1.111c0.636,0.715,1.906,1.429,2.62,1.429
			c-0.396,0.795-1.111,1.668-1.27,1.826c-0.874,1.191-3.891,3.097-4.05,3.256c-1.19,0.873-0.396,1.35,0.317,1.43
			c1.191,0.158,1.668,0.237,2.541,0.476c2.144,1.19,1.509,1.351,2.382,2.064c1.35,1.112,3.256,0.715,3.652,1.905
			c0.397,1.191-0.158,0.556-0.477,1.112C116.83,90.736,116.83,90.815,116.75,90.974z M115.719,80.971l-0.238,0.237
			c-0.238,0.397-1.826,1.351-1.588,2.462c0.873,1.508,3.572,1.825,5.002,1.984c0,0,1.984,0.238,2.382,0.952
			c0.238,0.478,0.794,0.397,1.35,0.397c0.238,0.477,0.477,0.954,0.952,1.191c0.318,0.397,0.477,0.715,0.795,1.35
			c0.158,0.714-1.588,0.714-1.985,0.317c-0.159-0.158-0.238-0.556-0.159-0.873c0.08-0.159,0.159-0.396,0-0.635
			c-0.079-0.159-0.794-0.874-1.031-0.874c-0.318,0-0.636,0.159-0.874,0.317c-0.317,0.16-0.556,0.317-0.794,0.16
			c-0.873-0.637-1.667-0.557-2.382-0.557l-0.635,0.079c-1.43-1.271-4.208-2.144-4.685-2.778c-0.238-0.318-0.397-0.557,0.079-0.953
			c0.08-0.079-0.158-0.238-0.397-0.159c-0.158,0.08-0.396,0.159-0.714,0.238c-0.715,0.159-0.159-0.396,0-0.635
			c0.317-0.477,2.144-1.43,2.699-1.747c1.271-0.953,3.414-2.144,4.288-3.891C117.545,78.35,116.909,79.541,115.719,80.971z
			 M118.895,71.681c-1.43-1.032-2.858-1.35-3.652-1.747c-0.477-0.238-0.636,0.397-0.556,1.35c0,0.557-0.318,1.191-0.715,1.271
			c-0.238-0.079-0.238,0.079-0.477-0.635c-0.238-0.953-0.079-1.191-1.35-1.668c-0.873-0.317-0.953-1.271-0.556-1.905
			c0.635,0.953,0.953,1.19,1.667,1.588c0.08-0.317-0.158-0.556-0.477-1.032c-0.158-0.158-0.317-0.873,0.557-0.873
			c0.794,0,1.826-0.079,3.334,0.715c0.636,0.317,1.747,1.111,4.446,1.508c0.636,0,7.86,0.636,13.498-6.511
			C133.106,66.758,129.058,71.919,118.895,71.681z M138.664,60.564c-0.476,0.715-0.636,0.715-1.032,1.509
			c-0.714,1.271-1.43,0.477-1.826,0c-0.238-0.158-0.476-0.952-6.113-1.032c-2.858-0.079-3.493-1.429-3.573-1.746
			c-0.396-1.032-0.396-0.953-0.952-1.509c-0.318-0.317-0.318-0.635,0.556-0.238c1.667,0.635,2.779,2.303,4.287,2.62
			c0.715,0.079,1.111,0.317,0.318-0.317c-0.715-0.556-1.033-0.953-1.588-1.43c-0.397-0.238-0.478-0.476,0.317-0.238
			c0.794,0.238,3.255,0.636,5.001,1.588c1.668,1.191,0.953,0.636,1.906,1.43c0.873,0.794,1.509,0.317,2.224-0.953
			c0.476-0.794,1.666-2.382,1.826-2.54c0.079,0,0.079-0.159,0.079,0C139.935,58.263,138.902,60.247,138.664,60.564z"/>
	</g>
	<path d="M46.088,136.945c-0.715-0.716-2.144-3.97-3.414-6.908c-0.715-1.667-1.509-3.256-1.985-4.287
		c-0.952-1.747-1.588-2.224-2.064-2.621c-0.079-0.079-0.158-0.079-0.238-0.157c0.715-0.397,1.985-1.033,2.779-1.906
		c1.429-1.509,2.064-3.572,2.064-5.398c0-2.224-0.874-4.287-2.224-5.559c-1.508-1.111-3.731-1.826-6.59-1.826H26v0.397h0.08
		c0.714,0.079,1.032,0.714,1.032,1.746v25.407c0,0.952-0.318,1.588-1.032,1.747H26v0.396h6.749V137.5H32.67
		c-0.715-0.079-1.032-0.715-1.032-1.746v-6.986V124.4v-0.08h0.238h0.079c0.477,0,1.509,0,2.303,0c0.079,0,0.158,0,0.158,0h0.477
		c0.397,0.397,0.715,0.874,1.191,1.747c1.667,3.652,4.049,9.448,4.684,11.115l1.271,0.636h5.161V137.5
		C46.961,137.421,46.405,137.263,46.088,136.945z M36.64,121.065c-1.032,0.715-2.382,0.873-4.208,0.873h-0.874v-10.004
		c0-1.19,0.08-1.271,1.509-1.35h0.556l0.317,0.079c0.318,0,0.636,0,0.953,0.08c1.111,0.158,1.826,0.636,2.382,1.35
		c0.636,0.794,1.191,2.54,1.191,3.97c0,1.667-0.317,3.176-0.953,4.128C37.274,120.589,36.957,120.827,36.64,121.065z"/>
	<path d="M159.624,137.659c-0.714-0.079-1.031-0.714-1.19-1.588v-0.079c-1.35-5.32-5.637-21.358-6.034-22.946
		c-0.158-0.238-0.158-0.238-0.237-0.238h-0.08l-3.255,0.636v0.08c-0.477,1.905-4.604,18.499-5.558,22.548
		c-0.238,0.874-0.636,1.429-1.271,1.588h-0.079v0.317h4.526v-0.317h-0.079c-0.478-0.079-0.795-0.477-0.795-1.031
		c0-0.16,0-0.318,0.079-0.557l1.43-5.796h5.875l0.159,0.636c0.636,2.461,1.032,4.049,1.35,5.16c0.079,0.158,0.079,0.238,0.079,0.396
		c0.08,0.239,0.08,0.397,0.08,0.557c0,0.317-0.159,0.556-0.556,0.635h-0.079v0.317h5.716v-0.317H159.624z M147.558,127.814
		c1.11-4.525,2.223-9.21,2.223-9.21s0,0,0-0.08l0.078,0.08c0.953,3.731,1.748,6.828,2.383,9.21H147.558z"/>
	<path d="M180.188,137.5c-0.238,0-0.556-0.158-0.873-0.476c-0.635-0.557-1.747-3.176-2.7-5.479c-0.635-1.509-1.27-2.938-1.746-3.812
		c-0.794-1.508-1.429-1.905-1.826-2.223l-0.158-0.079c0.635-0.317,1.667-0.874,2.302-1.589c1.111-1.19,1.747-2.778,1.747-4.524
		c0-1.826-0.715-3.573-1.905-4.686c-1.032-0.953-3.018-1.508-5.399-1.508h-7.384v0.317h0.079c0.635,0.08,0.952,0.715,0.952,1.589
		v20.88c0,0.873-0.317,1.509-0.952,1.588h-0.079v0.318h6.034V137.5H168.2c-0.636-0.079-0.954-0.715-0.954-1.588v-9.21h0.239
		c0.079,0,0.159,0,0.317,0h0.159c0.079,0,0.158,0,0.238,0c0.555,0,1.271,0,1.667,0c0.317,0.317,0.635,0.794,0.873,1.43
		c1.43,3.097,3.414,8.019,3.892,9.289l0.793,0.477h4.843V137.5H180.188z M172.011,123.129c-0.159,0.239-0.396,0.478-0.635,0.636
		c-0.874,0.636-1.905,0.794-3.256,0.794c-0.317,0-0.635,0-0.952,0v-1.27v-6.987v-0.08c0-0.872,0-0.952,1.111-1.032h0.158h0.397
		l0.397,0.08c0.238,0,0.476,0,0.714,0.08c0.873,0.157,1.509,0.555,1.905,1.11c0.556,0.716,0.954,2.145,0.954,3.256
		C172.806,121.224,172.487,122.336,172.011,123.129z"/>
</g>
</svg>
